<svg viewBox="0 0 12 12" width="60px" height="60px" xmlns="http://www.w3.org/2000/svg"><path fill-rule="evenodd" d="M 1,0 4,0 4,1 8,1 8,0 11,0 11,3 12,3 12,12 7,12 7,9 5,9 5,12 0,12 0,3 1,3z" fill="#3FA6DA"/><path fill-rule="evenodd" d="M 2,1 3,1 3,4 2,4z" fill="#ffffff"/><path fill-rule="evenodd" d="M 9,1 10,1 10,4 9,4z" fill="#ffffff"/><path fill-rule="evenodd" d="M 4,2 5,2 5,3 4,3z" fill="#ffffff"/><path fill-rule="evenodd" d="M 7,2 8,2 8,3 7,3z" fill="#ffffff"/><path fill-rule="evenodd" d="M 1,4 2,4 2,5 1,5z" fill="#ffffff"/><path fill-rule="evenodd" d="M 10,4 11,4 11,5 10,5z" fill="#ffffff"/><path fill-rule="evenodd" d="M 4,5 5,5 5,6 4,6z" fill="#ffffff"/><path fill-rule="evenodd" d="M 7,5 8,5 8,6 7,6z" fill="#ffffff"/><path fill-rule="evenodd" d="M 1,7 3,7 3,8 1,8z" fill="#ffffff"/><path fill-rule="evenodd" d="M 4,7 8,7 8,8 4,8z" fill="#ffffff"/><path fill-rule="evenodd" d="M 9,7 11,7 11,8 9,8z" fill="#ffffff"/><path fill-rule="evenodd" d="M 1,9 3,9 3,10 2,10 2,11 1,11z" fill="#ffffff"/><path fill-rule="evenodd" d="M 9,9 11,9 11,11 10,11 10,10 9,10z" fill="#ffffff"/><path fill-rule="evenodd" d="M 3,10 4,10 4,11 3,11z" fill="#ffffff"/><path fill-rule="evenodd" d="M 8,10 9,10 9,11 8,11z" fill="#ffffff"/></svg>